OpenSans-Thin.ufo
<glyph name="udieresis" format="2">
  <advance width="1174"/>
  <unicode hex="00FC"/>
  <anchor x="588" y="0" name="bottom"/>
  <anchor x="588" y="1452" name="top"/>
  <outline>
    <contour>
      <point x="985" y="1081" type="line"/>
      <point x="932" y="1081" type="line"/>
      <point x="932" y="463" type="line" smooth="yes"/>
      <point x="932" y="168"/>
      <point x="772" y="31"/>
      <point x="537" y="31" type="curve" smooth="yes"/>
      <point x="334" y="31"/>
      <point x="221" y="139"/>
      <point x="221" y="381" type="curve" smooth="yes"/>
      <point x="221" y="1081" type="line"/>
      <point x="168" y="1081" type="line"/>
      <point x="168" y="373" type="line" smooth="yes"/>
      <point x="168" y="117"/>
      <point x="295" y="-20"/>
      <point x="537" y="-20" type="curve" smooth="yes"/>
      <point x="766" y="-20"/>
      <point x="883" y="102"/>
      <point x="930" y="227" type="curve"/>
      <point x="934" y="227" type="line"/>
      <point x="942" y="0" type="line"/>
      <point x="985" y="0" type="line"/>
    </contour>
    <contour>
      <point x="348" y="1389" type="curve" smooth="yes"/>
      <point x="348" y="1354"/>
      <point x="358" y="1325"/>
      <point x="395" y="1325" type="curve" smooth="yes"/>
      <point x="440" y="1325"/>
      <point x="446" y="1354"/>
      <point x="446" y="1389" type="curve" smooth="yes"/>
      <point x="446" y="1421"/>
      <point x="440" y="1452"/>
      <point x="395" y="1452" type="curve" smooth="yes"/>
      <point x="358" y="1452"/>
      <point x="348" y="1421"/>
    </contour>
    <contour>
      <point x="727" y="1389" type="curve" smooth="yes"/>
      <point x="727" y="1354"/>
      <point x="737" y="1325"/>
      <point x="774" y="1325" type="curve" smooth="yes"/>
      <point x="819" y="1325"/>
      <point x="825" y="1354"/>
      <point x="825" y="1389" type="curve" smooth="yes"/>
      <point x="825" y="1421"/>
      <point x="819" y="1452"/>
      <point x="774" y="1452" type="curve" smooth="yes"/>
      <point x="737" y="1452"/>
      <point x="727" y="1421"/>
    </contour>
  </outline>
</glyph>
<glyph name="uni0250" format="2">
  <advance width="1047"/>
  <unicode hex="0250"/>
  <anchor x="524" y="0" name="bottom"/>
  <anchor x="524" y="1081" name="top"/>
  <outline>
    <contour>
      <point x="506" y="-19" type="curve" smooth="yes"/>
      <point x="627" y="-19"/>
      <point x="740" y="12"/>
      <point x="848" y="61" type="curve"/>
      <point x="830" y="114" type="line"/>
      <point x="713" y="55"/>
      <point x="615" y="32"/>
      <point x="506" y="32" type="curve" smooth="yes"/>
      <point x="316" y="32"/>
      <point x="224" y="133"/>
      <point x="224" y="379" type="curve" smooth="yes"/>
      <point x="224" y="467" type="line"/>
      <point x="435" y="479" type="line" smooth="yes"/>
      <point x="756" y="497"/>
      <point x="949" y="602"/>
      <point x="949" y="817" type="curve" smooth="yes"/>
      <point x="949" y="989"/>
      <point x="838" y="1101"/>
      <point x="621" y="1101" type="curve" smooth="yes"/>
      <point x="400" y="1101"/>
      <point x="285" y="995"/>
      <point x="228" y="870" type="curve"/>
      <point x="224" y="870" type="line"/>
      <point x="216" y="1081" type="line"/>
      <point x="170" y="1081" type="line"/>
      <point x="170" y="364" type="line" smooth="yes"/>
      <point x="170" y="98"/>
      <point x="283" y="-19"/>
    </contour>
    <contour>
      <point x="224" y="518" type="line"/>
      <point x="224" y="630" type="line"/>
      <point x="228" y="878"/>
      <point x="349" y="1050"/>
      <point x="621" y="1050" type="curve" smooth="yes"/>
      <point x="795" y="1050"/>
      <point x="891" y="962"/>
      <point x="891" y="817" type="curve" smooth="yes"/>
      <point x="891" y="626"/>
      <point x="709" y="542"/>
      <point x="431" y="528" type="curve" smooth="yes"/>
    </contour>
  </outline>
</glyph>
<glyph name="uni0281" format="2">
  <advance width="950"/>
  <unicode hex="0281"/>
  <anchor x="475" y="0" name="bottom"/>
  <anchor x="475" y="1081" name="top"/>
  <outline>
    <contour>
      <point x="170" y="1098" type="line"/>
      <point x="223" y="1098" type="line"/>
      <point x="223" y="613" type="line"/>
      <point x="535" y="613" type="line"/>
      <point x="848" y="1098" type="line"/>
      <point x="913" y="1098" type="line"/>
      <point x="592" y="606" type="line"/>
      <point x="725" y="580"/>
      <point x="846" y="475"/>
      <point x="846" y="297" type="curve" smooth="yes"/>
      <point x="846" y="107"/>
      <point x="727" y="0"/>
      <point x="446" y="0" type="curve" smooth="yes"/>
      <point x="170" y="0" type="line"/>
    </contour>
    <contour>
      <point x="223" y="561" type="line"/>
      <point x="223" y="51" type="line"/>
      <point x="438" y="51" type="line" smooth="yes"/>
      <point x="686" y="51"/>
      <point x="793" y="129"/>
      <point x="793" y="299" type="curve" smooth="yes"/>
      <point x="793" y="449"/>
      <point x="694" y="561"/>
      <point x="506" y="561" type="curve" smooth="yes"/>
    </contour>
  </outline>
</glyph>
<glyph name="uni028C" format="2">
  <advance width="881"/>
  <unicode hex="028C"/>
  <anchor x="440" y="0" name="bottom"/>
  <anchor x="440" y="1081" name="top"/>
  <outline>
    <contour>
      <point x="463" y="1081" type="line"/>
      <point x="418" y="1081" type="line"/>
      <point x="0" y="0" type="line"/>
      <point x="56" y="0" type="line"/>
      <point x="363" y="798" type="line" smooth="yes"/>
      <point x="398" y="886"/>
      <point x="414" y="940"/>
      <point x="439" y="1007" type="curve"/>
      <point x="443" y="1007" type="line"/>
      <point x="465" y="940"/>
      <point x="484" y="886"/>
      <point x="519" y="798" type="curve" smooth="yes"/>
      <point x="826" y="0" type="line"/>
      <point x="881" y="0" type="line"/>
    </contour>
  </outline>
</glyph>
<glyph name="acutecomb" format="2">
  <unicode hex="0301"/>
  <anchor x="-340" y="1081" name="_top"/>
  <anchor x="-340" y="1569" name="top"/>
  <outline>
    <contour>
      <point x="-84" y="1569" type="line"/>
      <point x="-145" y="1569" type="line"/>
      <point x="-205" y="1481"/>
      <point x="-338" y="1335"/>
      <point x="-430" y="1253" type="curve"/>
      <point x="-430" y="1241" type="line"/>
      <point x="-387" y="1241" type="line"/>
      <point x="-279" y="1331"/>
      <point x="-156" y="1462"/>
      <point x="-84" y="1554" type="curve"/>
    </contour>
  </outline>
</glyph>
<glyph name="tildecomb" format="2">
  <unicode hex="0303"/>
  <anchor x="-625" y="1081" name="_top"/>
  <anchor x="-625" y="1466" name="top"/>
  <outline>
    <contour>
      <point x="-956" y="1266" type="curve"/>
      <point x="-905" y="1266" type="line"/>
      <point x="-893" y="1389"/>
      <point x="-833" y="1417"/>
      <point x="-778" y="1417" type="curve" smooth="yes"/>
      <point x="-659" y="1417"/>
      <point x="-616" y="1264"/>
      <point x="-477" y="1264" type="curve" smooth="yes"/>
      <point x="-374" y="1264"/>
      <point x="-301" y="1333"/>
      <point x="-290" y="1466" type="curve"/>
      <point x="-342" y="1466" type="line"/>
      <point x="-354" y="1341"/>
      <point x="-415" y="1313"/>
      <point x="-475" y="1313" type="curve" smooth="yes"/>
      <point x="-585" y="1313"/>
      <point x="-639" y="1466"/>
      <point x="-774" y="1466" type="curve" smooth="yes"/>
      <point x="-878" y="1466"/>
      <point x="-946" y="1401"/>
    </contour>
  </outline>
</glyph>
<glyph name="dieresiscomb" format="2">
  <unicode hex="0308"/>
  <anchor x="-2" y="1081" name="_top"/>
  <anchor x="-2" y="1452" name="top"/>
  <outline>
    <contour>
      <point x="-240" y="1389" type="curve" smooth="yes"/>
      <point x="-240" y="1354"/>
      <point x="-230" y="1325"/>
      <point x="-193" y="1325" type="curve" smooth="yes"/>
      <point x="-148" y="1325"/>
      <point x="-142" y="1354"/>
      <point x="-142" y="1389" type="curve" smooth="yes"/>
      <point x="-142" y="1421"/>
      <point x="-148" y="1452"/>
      <point x="-193" y="1452" type="curve" smooth="yes"/>
      <point x="-230" y="1452"/>
      <point x="-240" y="1421"/>
    </contour>
    <contour>
      <point x="139" y="1389" type="curve" smooth="yes"/>
      <point x="139" y="1354"/>
      <point x="149" y="1325"/>
      <point x="186" y="1325" type="curve" smooth="yes"/>
      <point x="231" y="1325"/>
      <point x="237" y="1354"/>
      <point x="237" y="1389" type="curve" smooth="yes"/>
      <point x="237" y="1421"/>
      <point x="231" y="1452"/>
      <point x="186" y="1452" type="curve" smooth="yes"/>
      <point x="149" y="1452"/>
      <point x="139" y="1421"/>
    </contour>
  </outline>
</glyph>
<glyph name="caroncomb" format="2">
  <unicode hex="030C"/>
  <anchor x="-2" y="1081" name="_top"/>
  <anchor x="-2" y="1563" name="top"/>
  <outline>
    <contour>
      <point x="-27" y="1241" type="curve"/>
      <point x="18" y="1241" type="line"/>
      <point x="68" y="1325"/>
      <point x="180" y="1466"/>
      <point x="256" y="1550" type="curve"/>
      <point x="256" y="1563" type="line"/>
      <point x="213" y="1563" type="line"/>
      <point x="137" y="1487"/>
      <point x="53" y="1384"/>
      <point x="-4" y="1307" type="curve"/>
      <point x="-61" y="1384"/>
      <point x="-141" y="1487"/>
      <point x="-217" y="1563" type="curve"/>
      <point x="-260" y="1563" type="line"/>
      <point x="-260" y="1550" type="line"/>
      <point x="-184" y="1466"/>
      <point x="-76" y="1325"/>
    </contour>
  </outline>
</glyph>
<glyph name="gravebelowcomb" format="2">
  <unicode hex="0316"/>
  <anchor x="-29" y="0" name="_bottom"/>
  <anchor x="-29" y="-418" name="bottom"/>
  <outline>
    <contour>
      <point x="-140" y="-90" type="curve"/>
      <point x="-201" y="-90" type="line"/>
      <point x="-201" y="-105" type="line"/>
      <point x="-129" y="-197"/>
      <point x="-7" y="-328"/>
      <point x="102" y="-418" type="curve"/>
      <point x="145" y="-418" type="line"/>
      <point x="145" y="-406" type="line"/>
      <point x="53" y="-324"/>
      <point x="-80" y="-178"/>
    </contour>
  </outline>
</glyph>
<glyph name="acutebelowcomb" format="2">
  <unicode hex="0317"/>
  <anchor x="88" y="0" name="_bottom"/>
  <anchor x="88" y="-418" name="bottom"/>
  <outline>
    <contour>
      <point x="260" y="-90" type="line"/>
      <point x="199" y="-90" type="line"/>
      <point x="139" y="-178"/>
      <point x="6" y="-324"/>
      <point x="-86" y="-406" type="curve"/>
      <point x="-86" y="-418" type="line"/>
      <point x="-43" y="-418" type="line"/>
      <point x="65" y="-328"/>
      <point x="188" y="-197"/>
      <point x="260" y="-105" type="curve"/>
    </contour>
  </outline>
</glyph>
<glyph name="dieresisbelowcomb" format="2">
  <unicode hex="0324"/>
  <anchor x="-2" y="0" name="_bottom"/>
  <anchor x="-2" y="-303" name="bottom"/>
  <outline>
    <contour>
      <point x="-240" y="-239" type="curve" smooth="yes"/>
      <point x="-240" y="-274"/>
      <point x="-230" y="-303"/>
      <point x="-193" y="-303" type="curve" smooth="yes"/>
      <point x="-148" y="-303"/>
      <point x="-142" y="-274"/>
      <point x="-142" y="-239" type="curve" smooth="yes"/>
      <point x="-142" y="-207"/>
      <point x="-148" y="-176"/>
      <point x="-193" y="-176" type="curve" smooth="yes"/>
      <point x="-230" y="-176"/>
      <point x="-240" y="-207"/>
    </contour>
    <contour>
      <point x="139" y="-239" type="curve" smooth="yes"/>
      <point x="139" y="-274"/>
      <point x="149" y="-303"/>
      <point x="186" y="-303" type="curve" smooth="yes"/>
      <point x="231" y="-303"/>
      <point x="237" y="-274"/>
      <point x="237" y="-239" type="curve" smooth="yes"/>
      <point x="237" y="-207"/>
      <point x="231" y="-176"/>
      <point x="186" y="-176" type="curve" smooth="yes"/>
      <point x="149" y="-176"/>
      <point x="139" y="-207"/>
    </contour>
  </outline>
</glyph>
<glyph name="circumflexbelowcomb" format="2">
  <unicode hex="032D"/>
  <anchor x="0" y="0" name="_bottom"/>
  <anchor x="0" y="-410" name="bottom"/>
  <outline>
    <contour>
      <point x="25" y="-88" type="curve"/>
      <point x="-21" y="-88" type="line"/>
      <point x="-70" y="-172"/>
      <point x="-182" y="-314"/>
      <point x="-258" y="-398" type="curve"/>
      <point x="-258" y="-410" type="line"/>
      <point x="-215" y="-410" type="line"/>
      <point x="-139" y="-334"/>
      <point x="-55" y="-232"/>
      <point x="2" y="-154" type="curve"/>
      <point x="59" y="-232"/>
      <point x="139" y="-334"/>
      <point x="215" y="-410" type="curve"/>
      <point x="258" y="-410" type="line"/>
      <point x="258" y="-398" type="line"/>
      <point x="182" y="-314"/>
      <point x="74" y="-172"/>
    </contour>
  </outline>
</glyph>
<glyph name="tildebelowcomb" format="2">
  <unicode hex="0330"/>
  <anchor x="-49" y="0" name="_bottom"/>
  <anchor x="-49" y="-354" name="bottom"/>
  <outline>
    <contour>
      <point x="-381" y="-352" type="curve"/>
      <point x="-330" y="-352" type="line"/>
      <point x="-318" y="-229"/>
      <point x="-258" y="-201"/>
      <point x="-203" y="-201" type="curve" smooth="yes"/>
      <point x="-84" y="-201"/>
      <point x="-41" y="-354"/>
      <point x="98" y="-354" type="curve" smooth="yes"/>
      <point x="201" y="-354"/>
      <point x="274" y="-285"/>
      <point x="285" y="-152" type="curve"/>
      <point x="233" y="-152" type="line"/>
      <point x="221" y="-277"/>
      <point x="160" y="-305"/>
      <point x="100" y="-305" type="curve" smooth="yes"/>
      <point x="-10" y="-305"/>
      <point x="-64" y="-152"/>
      <point x="-199" y="-152" type="curve" smooth="yes"/>
      <point x="-303" y="-152"/>
      <point x="-371" y="-217"/>
    </contour>
  </outline>
</glyph>
<glyph name="afii10104" format="2">
  <advance width="424"/>
  <unicode hex="0457"/>
  <anchor x="213" y="0" name="bottom"/>
  <anchor x="213" y="1452" name="top"/>
  <outline>
    <contour>
      <point x="238" y="0" type="line"/>
      <point x="238" y="1081" type="line"/>
      <point x="184" y="1081" type="line"/>
      <point x="184" y="0" type="line"/>
    </contour>
    <contour>
      <point x="-27" y="1389" type="curve" smooth="yes"/>
      <point x="-27" y="1354"/>
      <point x="-17" y="1325"/>
      <point x="20" y="1325" type="curve" smooth="yes"/>
      <point x="65" y="1325"/>
      <point x="71" y="1354"/>
      <point x="71" y="1389" type="curve" smooth="yes"/>
      <point x="71" y="1421"/>
      <point x="65" y="1452"/>
      <point x="20" y="1452" type="curve" smooth="yes"/>
      <point x="-17" y="1452"/>
      <point x="-27" y="1421"/>
    </contour>
    <contour>
      <point x="352" y="1389" type="curve" smooth="yes"/>
      <point x="352" y="1354"/>
      <point x="362" y="1325"/>
      <point x="399" y="1325" type="curve" smooth="yes"/>
      <point x="444" y="1325"/>
      <point x="450" y="1354"/>
      <point x="450" y="1389" type="curve" smooth="yes"/>
      <point x="450" y="1421"/>
      <point x="444" y="1452"/>
      <point x="399" y="1452" type="curve" smooth="yes"/>
      <point x="362" y="1452"/>
      <point x="352" y="1421"/>
    </contour>
  </outline>
</glyph>
<glyph name="quotedblbase" format="2">
  <advance width="717"/>
  <unicode hex="201E"/>
  <outline>
    <contour>
      <point x="524" y="237" type="line"/>
      <point x="483" y="237" type="line"/>
      <point x="469" y="90"/>
      <point x="418" y="-121"/>
      <point x="354" y="-264" type="curve"/>
      <point x="389" y="-264" type="line"/>
      <point x="455" y="-123"/>
      <point x="512" y="51"/>
      <point x="537" y="219" type="curve"/>
    </contour>
    <contour>
      <point x="242" y="237" type="line"/>
      <point x="201" y="237" type="line"/>
      <point x="186" y="90"/>
      <point x="135" y="-121"/>
      <point x="72" y="-264" type="curve"/>
      <point x="107" y="-264" type="line"/>
      <point x="172" y="-123"/>
      <point x="229" y="51"/>
      <point x="254" y="219" type="curve"/>
    </contour>
  </outline>
</glyph>
<glyph name="Ohm" format="2">
  <advance width="1579"/>
  <unicode hex="2126"/>
  <outline>
    <contour>
      <point x="786" y="1434" type="curve" smooth="yes"/>
      <point x="1137" y="1434"/>
      <point x="1386" y="1198"/>
      <point x="1386" y="788" type="curve" smooth="yes"/>
      <point x="1386" y="416"/>
      <point x="1225" y="209"/>
      <point x="938" y="47" type="curve"/>
      <point x="938" y="0" type="line"/>
      <point x="1493" y="0" type="line"/>
      <point x="1493" y="51" type="line"/>
      <point x="1030" y="51" type="line"/>
      <point x="1274" y="195"/>
      <point x="1442" y="408"/>
      <point x="1442" y="788" type="curve" smooth="yes"/>
      <point x="1442" y="1231"/>
      <point x="1176" y="1485"/>
      <point x="786" y="1485" type="curve" smooth="yes"/>
      <point x="403" y="1485"/>
      <point x="135" y="1200"/>
      <point x="135" y="788" type="curve" smooth="yes"/>
      <point x="135" y="408"/>
      <point x="313" y="199"/>
      <point x="549" y="51" type="curve"/>
      <point x="84" y="51" type="line"/>
      <point x="84" y="0" type="line"/>
      <point x="637" y="0" type="line"/>
      <point x="637" y="47" type="line"/>
      <point x="377" y="211"/>
      <point x="190" y="403"/>
      <point x="190" y="788" type="curve" smooth="yes"/>
      <point x="190" y="1182"/>
      <point x="440" y="1434"/>
    </contour>
  </outline>
</glyph>
<glyph name="uniA735" format="2">
  <advance width="1883"/>
  <unicode hex="A735"/>
  <anchor x="854" y="6" name="bottom"/>
  <anchor x="881" y="1092" name="top"/>
  <outline>
    <contour>
      <point x="541" y="1100" type="curve" smooth="yes"/>
      <point x="420" y="1100"/>
      <point x="307" y="1069"/>
      <point x="199" y="1020" type="curve"/>
      <point x="217" y="967" type="line"/>
      <point x="334" y="1026"/>
      <point x="432" y="1049"/>
      <point x="541" y="1049" type="curve" smooth="yes"/>
      <point x="731" y="1049"/>
      <point x="823" y="948"/>
      <point x="823" y="702" type="curve" smooth="yes"/>
      <point x="823" y="614" type="line"/>
      <point x="612" y="602" type="line" smooth="yes"/>
      <point x="291" y="584"/>
      <point x="98" y="479"/>
      <point x="98" y="264" type="curve" smooth="yes"/>
      <point x="98" y="92"/>
      <point x="209" y="-20"/>
      <point x="426" y="-20" type="curve" smooth="yes"/>
      <point x="668" y="-20"/>
      <point x="805" y="113"/>
      <point x="856" y="301" type="curve"/>
      <point x="877" y="334" type="line"/>
      <point x="877" y="717" type="line" smooth="yes"/>
      <point x="877" y="983"/>
      <point x="764" y="1100"/>
    </contour>
    <contour>
      <point x="823" y="563" type="line"/>
      <point x="823" y="451" type="line"/>
      <point x="819" y="203"/>
      <point x="698" y="31"/>
      <point x="426" y="31" type="curve" smooth="yes"/>
      <point x="252" y="31"/>
      <point x="156" y="119"/>
      <point x="156" y="264" type="curve" smooth="yes"/>
      <point x="156" y="455"/>
      <point x="338" y="539"/>
      <point x="616" y="553" type="curve" smooth="yes"/>
    </contour>
    <contour>
      <point x="1760" y="541" type="curve" smooth="yes"/>
      <point x="1760" y="854"/>
      <point x="1629" y="1102"/>
      <point x="1303" y="1102" type="curve" smooth="yes"/>
      <point x="1002" y="1102"/>
      <point x="826" y="885"/>
      <point x="826" y="541" type="curve" smooth="yes"/>
      <point x="826" y="219"/>
      <point x="979" y="-20"/>
      <point x="1291" y="-20" type="curve" smooth="yes"/>
      <point x="1612" y="-20"/>
      <point x="1760" y="223"/>
    </contour>
    <contour>
      <point x="881" y="541" type="curve" smooth="yes"/>
      <point x="881" y="860"/>
      <point x="1033" y="1051"/>
      <point x="1303" y="1051" type="curve" smooth="yes"/>
      <point x="1592" y="1051"/>
      <point x="1704" y="823"/>
      <point x="1704" y="541" type="curve" smooth="yes"/>
      <point x="1704" y="244"/>
      <point x="1577" y="31"/>
      <point x="1291" y="31" type="curve" smooth="yes"/>
      <point x="1014" y="31"/>
      <point x="881" y="240"/>
    </contour>
  </outline>
</glyph>
<glyph name="uniA741" format="2">
  <advance width="930"/>
  <unicode hex="A741"/>
  <anchor x="465" y="0" name="bottom"/>
  <anchor x="213" y="1556" name="top"/>
  <outline>
    <contour>
      <point x="629" y="1346" type="line"/>
      <point x="31" y="1346" type="line"/>
      <point x="31" y="1294" type="line"/>
      <point x="629" y="1294" type="line"/>
    </contour>
    <contour>
      <point x="238" y="1556" type="line"/>
      <point x="184" y="1556" type="line"/>
      <point x="184" y="0" type="line"/>
      <point x="238" y="0" type="line"/>
      <point x="238" y="352" type="line"/>
      <point x="442" y="580" type="line"/>
      <point x="877" y="0" type="line"/>
      <point x="940" y="0" type="line"/>
      <point x="479" y="616" type="line"/>
      <point x="899" y="1081" type="line"/>
      <point x="829" y="1081" type="line"/>
      <point x="352" y="549" type="line" smooth="yes"/>
      <point x="307" y="500"/>
      <point x="281" y="469"/>
      <point x="233" y="416" type="curve"/>
      <point x="236" y="416" type="line"/>
      <point x="238" y="547"/>
      <point x="238" y="657"/>
      <point x="238" y="788" type="curve" smooth="yes"/>
    </contour>
  </outline>
</glyph>
<glyph name="afii10021.loclBGR" format="2">
  <advance width="1290"/>
  <outline>
    <component base="V" xScale="-1" yScale="-1" xOffset="1183" yOffset="1462"/>
    <contour>
      <point x="16" y="51" type="line"/>
      <point x="16" y="-358" type="line"/>
      <point x="70" y="-358" type="line"/>
      <point x="70" y="0" type="line"/>
      <point x="1167" y="0" type="line"/>
      <point x="1167" y="-358" type="line"/>
      <point x="1221" y="-358" type="line"/>
      <point x="1221" y="51" type="line"/>
    </contour>
  </outline>
</glyph>
<glyph name="afii10067.loclBGR" format="2">
  <advance width="1143"/>
  <outline>
    <contour>
      <point x="904" y="1234.19" type="curve" smooth="yes"/>
      <point x="904" y="1449.26"/>
      <point x="776.623" y="1567"/>
      <point x="564.318" y="1567" type="curve" smooth="yes"/>
      <point x="304.947" y="1567"/>
      <point x="182" y="1387.04"/>
      <point x="182" y="1065.65" type="curve" smooth="yes"/>
      <point x="182" y="424.159" type="line" smooth="yes"/>
      <point x="182" y="141.61"/>
      <point x="320.523" y="-20"/>
      <point x="575.715" y="-20" type="curve" smooth="yes"/>
      <point x="843.97" y="-20"/>
      <point x="1022" y="148.56"/>
      <point x="1022" y="453.357" type="curve" smooth="yes"/>
      <point x="1022" y="686.525"/>
      <point x="888.082" y="867.267"/>
      <point x="692.066" y="883.085" type="curve"/>
      <point x="692.066" y="888.085" type="line"/>
      <point x="826.108" y="932.995"/>
      <point x="904" y="1110.25"/>
    </contour>
    <contour>
      <point x="966" y="453.357" type="curve" smooth="yes"/>
      <point x="966" y="172.059"/>
      <point x="808.859" y="31"/>
      <point x="575.715" y="31" type="curve" smooth="yes"/>
      <point x="331.115" y="31"/>
      <point x="236" y="204.068"/>
      <point x="236" y="420.642" type="curve" smooth="yes"/>
      <point x="236" y="777" type="line"/>
      <point x="314.009" y="804.37"/>
      <point x="554.969" y="842.307"/>
      <point x="630.908" y="842.307" type="curve" smooth="yes"/>
      <point x="818.246" y="842.307"/>
      <point x="966" y="684.607"/>
    </contour>
    <contour>
      <point x="849" y="1243.09" type="curve" smooth="yes"/>
      <point x="849" y="1119.24"/>
      <point x="787.339" y="991.338"/>
      <point x="680.919" y="932.63" type="curve" smooth="yes"/>
      <point x="577.138" y="875.378"/>
      <point x="387.467" y="851.268"/>
      <point x="236" y="834.716" type="curve"/>
      <point x="236" y="1065.65" type="line" smooth="yes"/>
      <point x="236" y="1356.07"/>
      <point x="340.366" y="1516"/>
      <point x="564.318" y="1516" type="curve" smooth="yes"/>
      <point x="742.131" y="1516"/>
      <point x="849" y="1421.96"/>
    </contour>
  </outline>
</glyph>
<glyph name="afii10068.loclBGR" format="2">
  <advance width="1088"/>
  <outline>
    <contour>
      <point x="169" y="262" type="curve" smooth="yes"/>
      <point x="169" y="412.358"/>
      <point x="286.32" y="518.568"/>
      <point x="544.996" y="592.617" type="curve" smooth="yes"/>
      <point x="714.131" y="641.034"/>
      <point x="870" y="687"/>
      <point x="870" y="842.056" type="curve" smooth="yes"/>
      <point x="870" y="975.353"/>
      <point x="754.807" y="1051"/>
      <point x="557.831" y="1051" type="curve" smooth="yes"/>
      <point x="446.726" y="1051"/>
      <point x="325.285" y="1026.7"/>
      <point x="247.964" y="989" type="curve"/>
      <point x="225.998" y="1040" type="line"/>
      <point x="323.932" y="1079.92"/>
      <point x="438.041" y="1102"/>
      <point x="547.481" y="1102" type="curve" smooth="yes"/>
      <point x="779.205" y="1102"/>
      <point x="926" y="1003"/>
      <point x="926" y="846" type="curve" smooth="yes"/>
      <point x="926" y="647"/>
      <point x="762.981" y="603.193"/>
      <point x="571.463" y="549" type="curve" smooth="yes"/>
      <point x="328.998" y="480.391"/>
      <point x="225" y="396.043"/>
      <point x="225" y="268" type="curve" smooth="yes"/>
      <point x="225" y="106.731"/>
      <point x="341.476" y="31"/>
      <point x="568.308" y="31" type="curve" smooth="yes"/>
      <point x="703.217" y="31"/>
      <point x="823.666" y="57.7889"/>
      <point x="931" y="111" type="curve"/>
      <point x="931" y="49" type="line"/>
      <point x="833.856" y="5.94638"/>
      <point x="699.784" y="-20"/>
      <point x="566.282" y="-20" type="curve" smooth="yes"/>
      <point x="313.669" y="-20"/>
      <point x="169" y="72.9003"/>
    </contour>
  </outline>
</glyph>
<glyph name="afii10072.loclBGR" format="2">
  <advance width="1257"/>
  <outline>
    <contour>
      <point x="1202" y="1081" type="line"/>
      <point x="1133" y="1081" type="line"/>
      <point x="653" y="555" type="line"/>
      <point x="653" y="1556" type="line"/>
      <point x="600" y="1556" type="line"/>
      <point x="600" y="555" type="line"/>
      <point x="119" y="1081" type="line"/>
      <point x="49" y="1081" type="line"/>
      <point x="537" y="551" type="line"/>
      <point x="16" y="0" type="line"/>
      <point x="88" y="0" type="line"/>
      <point x="600" y="547" type="line"/>
      <point x="600" y="0" type="line"/>
      <point x="653" y="0" type="line"/>
      <point x="653" y="547" type="line"/>
      <point x="1165" y="0" type="line"/>
      <point x="1237" y="0" type="line"/>
      <point x="717" y="551" type="line"/>
    </contour>
  </outline>
</glyph>
<glyph name="afii10088.loclBGR" format="2">
  <advance width="1180"/>
  <outline>
    <component base="u"/>
    <contour>
      <point x="970" y="0" type="line"/>
      <point x="1069" y="0" type="line"/>
      <point x="1069" y="-360" type="line"/>
      <point x="1122" y="-360" type="line"/>
      <point x="1122" y="51" type="line"/>
      <point x="970" y="51" type="line"/>
    </contour>
  </outline>
</glyph>
<glyph name="afii10091.loclBGR" format="2">
  <advance width="1754"/>
  <outline>
    <component base="afii10090.loclBGR"/>
    <contour>
      <point x="1544" y="0" type="line"/>
      <point x="1643" y="0" type="line"/>
      <point x="1643" y="-360" type="line"/>
      <point x="1696" y="-360" type="line"/>
      <point x="1696" y="51" type="line"/>
      <point x="1544" y="51" type="line"/>
    </contour>
  </outline>
</glyph>
<glyph name="afii10096.loclBGR" format="2">
  <advance width="1587"/>
  <anchor x="1014" y="0" name="bottom"/>
  <anchor x="1014" y="1081" name="top"/>
  <anchor x="1014" y="541" name="center"/>
  <anchor x="1561" y="1081" name="topright"/>
  <outline>
    <contour>
      <point x="1466" y="541" type="curve" smooth="yes"/>
      <point x="1466" y="836"/>
      <point x="1364" y="1102"/>
      <point x="1049" y="1102" type="curve" smooth="yes"/>
      <point x="756" y="1102"/>
      <point x="637" y="852"/>
      <point x="627" y="594" type="curve"/>
      <point x="236" y="594" type="line"/>
      <point x="236" y="1556" type="line"/>
      <point x="182" y="1556" type="line"/>
      <point x="182" y="0" type="line"/>
      <point x="236" y="0" type="line"/>
      <point x="236" y="543" type="line"/>
      <point x="627" y="543" type="line"/>
      <point x="629" y="217"/>
      <point x="756" y="-20"/>
      <point x="1042" y="-20" type="curve" smooth="yes"/>
      <point x="1343" y="-20"/>
      <point x="1466" y="231"/>
    </contour>
    <contour>
      <point x="682" y="541" type="curve" smooth="yes"/>
      <point x="682" y="817"/>
      <point x="788" y="1051"/>
      <point x="1047" y="1051" type="curve" smooth="yes"/>
      <point x="1307" y="1051"/>
      <point x="1411" y="819"/>
      <point x="1411" y="541" type="curve" smooth="yes"/>
      <point x="1411" y="256"/>
      <point x="1300" y="31"/>
      <point x="1044" y="31" type="curve" smooth="yes"/>
      <point x="782" y="31"/>
      <point x="682" y="270"/>
    </contour>
  </outline>
</glyph>
<glyph name="nine.dnom" format="2">
  <advance width="672"/>
  <outline>
    <contour>
      <point x="319" y="897" type="curve" smooth="yes"/>
      <point x="158" y="897"/>
      <point x="39" y="782"/>
      <point x="39" y="610" type="curve" smooth="yes"/>
      <point x="39" y="430"/>
      <point x="141" y="332"/>
      <point x="307" y="332" type="curve" smooth="yes"/>
      <point x="428" y="332"/>
      <point x="512" y="389"/>
      <point x="555" y="455" type="curve"/>
      <point x="559" y="455" type="line"/>
      <point x="545" y="176"/>
      <point x="440" y="35"/>
      <point x="223" y="35" type="curve" smooth="yes"/>
      <point x="166" y="35"/>
      <point x="115" y="45"/>
      <point x="80" y="55" type="curve"/>
      <point x="80" y="0" type="line"/>
      <point x="121" y="-10"/>
      <point x="160" y="-16"/>
      <point x="219" y="-16" type="curve" smooth="yes"/>
      <point x="449" y="-16"/>
      <point x="618" y="113"/>
      <point x="618" y="537" type="curve" smooth="yes"/>
      <point x="618" y="774"/>
      <point x="498" y="897"/>
    </contour>
    <contour>
      <point x="319" y="846" type="curve" smooth="yes"/>
      <point x="461" y="846"/>
      <point x="553" y="750"/>
      <point x="553" y="584" type="curve" smooth="yes"/>
      <point x="553" y="451"/>
      <point x="424" y="383"/>
      <point x="313" y="383" type="curve" smooth="yes"/>
      <point x="168" y="383"/>
      <point x="94" y="465"/>
      <point x="94" y="610" type="curve" smooth="yes"/>
      <point x="94" y="754"/>
      <point x="186" y="846"/>
    </contour>
  </outline>
</glyph>
<glyph name="one.numr" format="2">
  <advance width="672"/>
  <outline>
    <contour>
      <point x="395" y="1463" type="line"/>
      <point x="354" y="1463" type="line"/>
      <point x="76" y="1313" type="line"/>
      <point x="98" y="1268" type="line"/>
      <point x="195" y="1319" type="line" smooth="yes"/>
      <point x="260" y="1354"/>
      <point x="297" y="1372"/>
      <point x="344" y="1403" type="curve"/>
      <point x="342" y="1329"/>
      <point x="342" y="1237"/>
      <point x="342" y="1159" type="curve" smooth="yes"/>
      <point x="342" y="586" type="line"/>
      <point x="395" y="586" type="line"/>
    </contour>
  </outline>
</glyph>
<glyph name="six.dnom" format="2">
  <advance width="672"/>
  <outline>
    <contour>
      <point x="438" y="897" type="curve" smooth="yes"/>
      <point x="209" y="897"/>
      <point x="39" y="770"/>
      <point x="39" y="346" type="curve" smooth="yes"/>
      <point x="39" y="109"/>
      <point x="160" y="-16"/>
      <point x="338" y="-16" type="curve" smooth="yes"/>
      <point x="500" y="-16"/>
      <point x="618" y="98"/>
      <point x="618" y="274" type="curve" smooth="yes"/>
      <point x="618" y="453"/>
      <point x="516" y="549"/>
      <point x="350" y="549" type="curve" smooth="yes"/>
      <point x="229" y="549"/>
      <point x="145" y="494"/>
      <point x="102" y="430" type="curve"/>
      <point x="98" y="430" type="line"/>
      <point x="113" y="704"/>
      <point x="217" y="846"/>
      <point x="434" y="846" type="curve" smooth="yes"/>
      <point x="492" y="846"/>
      <point x="543" y="836"/>
      <point x="578" y="825" type="curve"/>
      <point x="578" y="881" type="line"/>
      <point x="537" y="891"/>
      <point x="498" y="897"/>
    </contour>
    <contour>
      <point x="344" y="498" type="curve" smooth="yes"/>
      <point x="485" y="498"/>
      <point x="563" y="418"/>
      <point x="563" y="274" type="curve" smooth="yes"/>
      <point x="563" y="127"/>
      <point x="471" y="35"/>
      <point x="338" y="35" type="curve" smooth="yes"/>
      <point x="197" y="35"/>
      <point x="104" y="131"/>
      <point x="104" y="297" type="curve" smooth="yes"/>
      <point x="104" y="432"/>
      <point x="233" y="498"/>
    </contour>
  </outline>
</glyph>
<glyph name="three.dnom" format="2">
  <advance width="672"/>
  <outline>
    <contour>
      <point x="348" y="891" type="curve" smooth="yes"/>
      <point x="238" y="891"/>
      <point x="147" y="858"/>
      <point x="72" y="807" type="curve"/>
      <point x="92" y="762" type="line"/>
      <point x="170" y="809"/>
      <point x="246" y="840"/>
      <point x="348" y="840" type="curve" smooth="yes"/>
      <point x="475" y="840"/>
      <point x="547" y="776"/>
      <point x="547" y="678" type="curve" smooth="yes"/>
      <point x="547" y="555"/>
      <point x="465" y="485"/>
      <point x="319" y="485" type="curve" smooth="yes"/>
      <point x="182" y="485" type="line"/>
      <point x="182" y="434" type="line"/>
      <point x="319" y="434" type="line" smooth="yes"/>
      <point x="487" y="434"/>
      <point x="567" y="377"/>
      <point x="567" y="252" type="curve" smooth="yes"/>
      <point x="567" y="121"/>
      <point x="477" y="43"/>
      <point x="309" y="43" type="curve" smooth="yes"/>
      <point x="215" y="43"/>
      <point x="135" y="66"/>
      <point x="53" y="100" type="curve"/>
      <point x="53" y="43" type="line"/>
      <point x="123" y="12"/>
      <point x="213" y="-8"/>
      <point x="309" y="-8" type="curve" smooth="yes"/>
      <point x="506" y="-8"/>
      <point x="623" y="86"/>
      <point x="623" y="252" type="curve" smooth="yes"/>
      <point x="623" y="369"/>
      <point x="559" y="438"/>
      <point x="446" y="463" type="curve"/>
      <point x="446" y="467" type="line"/>
      <point x="537" y="487"/>
      <point x="602" y="563"/>
      <point x="602" y="678" type="curve" smooth="yes"/>
      <point x="602" y="813"/>
      <point x="502" y="891"/>
    </contour>
  </outline>
</glyph>
<glyph name="two.numr" format="2">
  <advance width="672"/>
  <outline>
    <contour>
      <point x="629" y="586" type="line"/>
      <point x="629" y="637" type="line"/>
      <point x="131" y="637" type="line"/>
      <point x="342" y="852" type="line" smooth="yes"/>
      <point x="504" y="1018"/>
      <point x="604" y="1108"/>
      <point x="604" y="1252" type="curve" smooth="yes"/>
      <point x="604" y="1387"/>
      <point x="510" y="1485"/>
      <point x="346" y="1485" type="curve" smooth="yes"/>
      <point x="250" y="1485"/>
      <point x="162" y="1452"/>
      <point x="88" y="1391" type="curve"/>
      <point x="115" y="1350" type="line"/>
      <point x="190" y="1407"/>
      <point x="260" y="1434"/>
      <point x="346" y="1434" type="curve" smooth="yes"/>
      <point x="479" y="1434"/>
      <point x="549" y="1358"/>
      <point x="549" y="1252" type="curve" smooth="yes"/>
      <point x="549" y="1129"/>
      <point x="455" y="1039"/>
      <point x="307" y="887" type="curve" smooth="yes"/>
      <point x="55" y="629" type="line"/>
      <point x="55" y="586" type="line"/>
    </contour>
  </outline>
</glyph>
<glyph name="zero.dnom" format="2">
  <advance width="672"/>
  <outline>
    <contour>
      <point x="338" y="-16" type="curve" smooth="yes"/>
      <point x="520" y="-16"/>
      <point x="618" y="123"/>
      <point x="618" y="442" type="curve" smooth="yes"/>
      <point x="618" y="762"/>
      <point x="532" y="899"/>
      <point x="338" y="899" type="curve" smooth="yes"/>
      <point x="156" y="899"/>
      <point x="53" y="756"/>
      <point x="53" y="442" type="curve" smooth="yes"/>
      <point x="53" y="123"/>
      <point x="135" y="-16"/>
    </contour>
    <contour>
      <point x="338" y="35" type="curve" smooth="yes"/>
      <point x="182" y="35"/>
      <point x="109" y="152"/>
      <point x="109" y="442" type="curve" smooth="yes"/>
      <point x="109" y="733"/>
      <point x="197" y="848"/>
      <point x="338" y="848" type="curve" smooth="yes"/>
      <point x="492" y="848"/>
      <point x="563" y="733"/>
      <point x="563" y="442" type="curve" smooth="yes"/>
      <point x="563" y="158"/>
      <point x="489" y="35"/>
    </contour>
  </outline>
</glyph>
